Coordinates
version=1
nRows=41
nColumns=11
inDegrees=no

Units are S.I. units (second, meters, Newtons, ...)
If the header above contains a line with 'inDegrees', this indicates whether rotational values are in degrees (yes) or radians (no).

endheader
time	pelvis_tilt	pelvis_tx	pelvis_ty	hip_flexion_r	knee_angle_r	ankle_angle_r	hip_flexion_l	knee_angle_l	ankle_angle_l	lumbar_extension
105.34	0.0748764	0.0400071	1.00766	0.0805882	-0.0657653	0.0822974	-0.0172059	-0.944544	-0.430256	0
105.35	0.0713347	0.0381366	1.0094	0.0681533	-0.0593604	0.0911042	0.0249022	-0.990296	-0.420792	0
105.36	0.0500576	0.0333923	1.01003	0.0727336	-0.0420674	0.0955859	0.0864349	-1.02619	-0.387325	0
105.37	0.0676702	0.0345885	1.0127	0.0378788	-0.0453823	0.104328	0.0977531	-1.05945	-0.346458	0
105.38	0.0453206	0.0298766	1.01287	0.0446472	-0.028303	0.109737	0.157736	-1.08165	-0.302035	0
105.39	0.0442048	0.0283005	1.01437	0.0293867	-0.0227379	0.115109	0.187805	-1.0973	-0.257645	0
105.4	0.0437486	0.0269172	1.01582	0.0142514	-0.018957	0.122756	0.215447	-1.10809	-0.209428	0
105.41	0.0417553	0.0248845	1.01693	0.00405791	-0.0197072	0.132896	0.245275	-1.11526	-0.164125	0
105.42	0.0387423	0.0225475	1.01767	-0.00367595	-0.0216925	0.145599	0.275907	-1.11818	-0.126763	0
105.43	0.0280074	0.0184432	1.01763	-0.0020797	-0.021501	0.151093	0.317159	-1.11892	-0.0949429	0
105.44	0.0252986	0.0161335	1.018	-0.00876573	-0.0249158	0.159488	0.343973	-1.10976	-0.0664723	0
105.45	0.0582169	0.0204452	1.02121	-0.0585772	-0.0377563	0.173815	0.316549	-1.08853	-0.0482745	0
105.46	0.0579315	0.0184451	1.02149	-0.068634	-0.0410053	0.184287	0.335618	-1.0678	-0.0304934	0
105.47	0.0529259	0.0157033	1.0212	-0.0704966	-0.0480585	0.194553	0.361095	-1.04521	-0.0147351	0
105.48	0.0140399	0.00715957	1.01787	-0.0327759	-0.0431136	0.195763	0.4319	-1.01975	0.00827444	0
105.49	0.023456	0.00780581	1.01846	-0.0548682	-0.0500844	0.211681	0.428385	-0.978788	0.0281044	0
105.5	0.021923	0.00585132	1.01761	-0.0638264	-0.054889	0.22369	0.441738	-0.940382	0.0475284	0
105.51	0.0192928	0.0033704	1.01644	-0.070689	-0.060043	0.23479	0.454562	-0.897772	0.0606742	0
105.52	0.0178974	0.00140117	1.01527	-0.0776453	-0.0658845	0.24863	0.463381	-0.849351	0.0666652	0
105.53	0.0164327	0.000180862	1.01409	-0.0868274	-0.0705634	0.261651	0.468445	-0.796118	0.0710783	0
105.54	0.0164366	-0.000417862	1.01295	-0.0990867	-0.073108	0.270362	0.46996	-0.739926	0.072735	0
105.55	0.0153441	-0.00148217	1.01138	-0.108647	-0.076452	0.279778	0.470688	-0.680152	0.0739917	0
105.56	-0.000603483	-0.00565628	1.00813	-0.0976505	-0.0808813	0.286179	0.490741	-0.619581	0.0745202	0
105.57	-0.00149149	-0.00671836	1.00612	-0.108804	-0.0820233	0.29753	0.486476	-0.551737	0.0736729	0
105.58	-0.00113717	-0.00682215	1.00411	-0.125738	-0.0772924	0.305069	0.474598	-0.476444	0.0704388	0
105.59	-0.00223543	-0.0071113	1.00182	-0.139385	-0.0762887	0.314194	0.464069	-0.399859	0.0649375	0
105.6	0.0122362	-0.00471982	1.00066	-0.173271	-0.0766694	0.328734	0.429124	-0.318926	0.0650221	0
105.61	0.0108077	-0.00499408	0.998106	-0.186637	-0.0754186	0.339648	0.415247	-0.245157	0.0691898	0
105.62	0.00942954	-0.00574951	0.995524	-0.197348	-0.079298	0.351887	0.400875	-0.175688	0.0757851	0
105.63	0.00887641	-0.00608236	0.99302	-0.208388	-0.0847304	0.362281	0.383835	-0.107535	0.080962	0
105.64	0.0070539	-0.00649739	0.990277	-0.218634	-0.0887759	0.368374	0.367952	-0.0435692	0.0849287	0
105.65	0.00602271	-0.00634466	0.987576	-0.22835	-0.0946605	0.375987	0.354081	0.00935173	0.0903326	0
105.66	0.00744981	-0.00605716	0.985077	-0.240618	-0.102758	0.386133	0.340325	0.0487161	0.0981682	0
105.67	0.00796482	-0.00553594	0.982692	-0.250857	-0.111956	0.393983	0.331774	0.0744483	0.109497	0
105.68	0.00940083	-0.00474316	0.980729	-0.260963	-0.123859	0.398395	0.324822	0.0861599	0.119052	0
105.69	0.0115643	-0.00383722	0.978969	-0.26905	-0.142131	0.403201	0.321294	0.0802014	0.120011	0
105.7	0.00922576	-0.0037358	0.977062	-0.267715	-0.16563	0.406439	0.328661	0.0587	0.103092	0
105.71	0.00915922	-0.00334192	0.975854	-0.269573	-0.188656	0.403326	0.330515	0.0365723	0.0749959	0
105.72	0.0101376	-0.00247041	0.975225	-0.271884	-0.213323	0.394942	0.327512	0.0205533	0.0481159	0
105.73	0.0104607	-0.00158527	0.974947	-0.270388	-0.244486	0.384126	0.322092	0.0104105	0.0202493	0
105.74	0.00907454	-0.000515742	0.974745	-0.264977	-0.278337	0.371815	0.31563	0.00579902	-0.0119391	0
